<svg xmlns="http://www.w3.org/2000/svg" width="1000" height="600"><path fill-rule="evenodd" d="M-204.863 -406.565H795.137V193.435H-204.863z" transform="translate(204.86308,406.56549)"/><path fill="#fff" fill-rule="evenodd" d="M-204.863 -106.565H795.137V193.435H-204.863z" transform="translate(204.86308,406.56549)"/><path d="m 224.35943,-307.63906 c 24.87266,54.47146 39.27681,113.20974 42.69744,172.99344 -59.84614,-3.32122 -118.43654,-17.87558 -172.993522,-42.69736 V -35.787957 C 148.53484,-60.660731 207.27309,-75.064851 267.05687,-78.485401 263.73561,-18.639296 249.18121,39.951083 224.35943,94.508079 h 141.55502 c -24.87276,-54.471466 -39.27688,-113.209735 -42.69736,-172.99348 59.84614,3.32123 118.43645,17.87558 172.9934,42.697444 V -177.34298 c -54.47146,24.87269 -113.20962,39.27685 -172.9934,42.69736 3.32119,-59.84606 17.87551,-118.43645 42.69736,-172.99344 z" fill="red" stroke="#000" stroke-width="1.856" transform="translate(204.86308,406.56549)"/></svg>